<?xml version="1.0" encoding="utf-8"?>
<svg width="220" height="380" viewBox="82 -80 220 380" xmlns="http://www.w3.org/2000/svg" xmlns:bx="http://www.boxy-svg.com/bx">
  <path d="M 23.42 97.384 C 19.744 179.23 83.097 170.106 133.022 179.207 C 143.045 189.121 156.095 201.261 175.372 202.539 C 196.526 198.556 211.922 195.569 238.582 186.783 C 335.008 200.963 359.725 185.813 353.022 143.463 C 346.772 128.753 295.492 101.443 264.342 134.253 L 231.512 134.753 C 230.305 114.153 226.877 100.673 208.957 67.843 C 206.507 41.643 198.307 11.143 175.947 9.993 C 160.727 8.953 153.497 19.563 144.917 28.503 C 131.477 28.813 118.437 28.923 105.237 27.663 C 90.928 32.554 82.968 58.274 58.268 58.484 C 45.428 66.56 35.018 84.344 23.418 97.374 Z" style="fill: rgb(255, 208, 0); fill-rule: evenodd;" transform="matrix(0, -1, 1, 0, 83.988542, 295.480555)" bx:origin="0.5 0.5"/>
  <path d="M 66.52 85.774 C 77.464 98.284 88.407 94.284 99.35 84.007 C 111.933 102.655 127.96 112.075 144.05 89.31 C 172.79 98.352 190.124 87.137 204.154 68.097 C 228.714 73.099 244.494 63.062 254.914 43.854 C 273.134 70.346 265.234 92.392 252.144 113.554 C 257.224 126.537 266.134 129.398 272.854 132.242 C 304.794 123.242 341.074 148.394 390.034 104.968 C 394.884 133.571 375.444 139.913 356.704 146.888 C 325.464 151.38 295.084 147.211 264.784 142.343 L 211.744 157.993 L 157.194 129.203 C 116.124 129.043 68.744 123.833 66.534 85.763 Z" style="opacity: 0.64; fill: rgb(177, 142, 108); fill-rule: evenodd;" transform="matrix(0, -1, 1, 0, 129.7786, 331.625624)" bx:origin="0.5 0.5"/>
  <path d="M 100.545 182.55 C 82.711 181.39 72.46 179.447 64.405 175.7 C 51.985 169.92 32.649 152.95 26.548 142.474 C 22.718 135.894 18.832 119.844 18.674 109.954 C 18.514 100.374 19.614 98.104 26.714 93.294 C 35.114 87.594 40.694 81.074 45.414 71.444 C 51.754 58.534 55.754 55.604 67.174 55.504 C 76.384 55.424 80.944 52.874 87.344 44.214 C 95.674 32.964 103.324 26.944 111.584 25.164 C 122.454 23.704 133.784 32.504 144.444 28.844 C 150.094 22.284 154.214 16.564 161.024 11.044 C 175.254 3.824 195.964 8.954 204.264 21.784 C 207.944 29.334 210.714 41.094 211.954 54.414 C 213.224 68.037 215.204 73.874 222.714 86.097 C 231.004 101.437 235.904 110.567 236.094 131.297 L 263.36 132.531 C 280.444 114.741 293.95 111.838 317.376 118.031 C 335.332 124.141 349.146 122.821 357.972 141.478 C 361.945 151.028 362.672 158.348 360.412 166.128 C 356.585 179.278 350.124 187.888 340.582 192.538 C 322.772 201.218 284.445 202.548 251.167 195.628 C 237.303 191.498 224.507 193.788 211.757 199.972 C 189.541 208.887 184.642 204.977 178.149 212.586 C 145.629 191.859 139.651 185.666 100.515 182.526 Z M 212.071 190.2 C 224.717 183.43 239.578 184.326 253.031 187.73 C 280.371 193.025 316.013 196.354 341.263 183.562 C 348.81 178.377 354.905 166.122 354.905 156.132 C 354.263 132.387 336.471 131.797 318.405 126.256 C 308.798 121.976 297.105 121.596 287.493 126.016 C 271.127 134.506 263.533 151.816 252.343 165.386 C 251.059 157.106 254.746 149.446 257.518 141.896 L 233.282 142.876 C 221.504 168.256 198.66 170.086 175.142 160.636 C 168.747 169.266 156.804 177.006 139.662 176.906 C 152.906 181.576 163.527 192.536 176.638 197.306 C 189.804 200.236 200.858 196.316 212.071 190.216 Z M 106.407 131.432 C 103.937 122.214 103.049 113.289 104.787 115.162 C 105.272 115.684 108.277 121.962 111.465 129.112 C 121.817 162.932 164.577 181.112 172.905 139.047 C 173.17 118.911 152.018 95.657 163.629 76.433 C 161.376 88.29 166.425 98.613 171.439 109.111 C 178.042 122.406 179.835 129.115 179.885 140.713 C 180.845 156.393 198.085 156.031 209.845 153.018 C 239.515 136.355 224.665 104.673 213.585 81.993 C 207.342 69.51 205.583 63.179 203.402 45.34 C 202.072 24.754 193.332 16.345 171.809 15.9 C 158.167 15.395 155.934 37.225 144.084 37.61 C 134.584 37.155 125.364 34.367 115.904 33.632 C 107.224 33.598 100.544 38.888 93.854 51.082 C 88.624 60.6 86.634 61.718 73.384 62.566 C 67.874 62.926 62.694 63.616 61.884 64.116 C 51.294 79.256 48.764 88.356 32.584 100.386 C 25.864 118.836 38.444 158.286 63.734 154.216 C 62.034 137.686 61.064 122.626 70.714 110.156 C 71.974 115.296 71.854 120.556 71.554 125.796 C 59.854 170.486 125.044 185.536 106.384 131.446 Z" transform="matrix(0, -1, 1, 0, 82.387865, 298.797917)" bx:origin="0.5 0.5"/>
</svg>