<?xml version="1.0" encoding="utf-8"?>
<svg width="380" height="220" xmlns="http://www.w3.org/2000/svg">
  <path d="M26.552 98.8c-3.676 81.846 59.677 72.722 109.602 81.823 10.023 9.914 23.073 22.054 42.35 23.332 21.154-3.983 36.55-6.97 63.21-15.756 96.426 14.18 121.143-.97 114.44-43.32-6.25-14.71-57.53-42.02-88.68-9.21l-32.83.5c-1.207-20.6-4.635-34.08-22.555-66.91-2.45-26.2-10.65-56.7-33.01-57.85-15.22-1.04-22.45 9.57-31.03 18.51-13.44.31-26.48.42-39.68-.84C94.06 33.97 86.1 59.69 61.4 59.9c-12.84 8.076-23.25 25.86-34.85 38.89z" style="fill: rgb(241, 198, 198); fill-rule: evenodd;"/>
  <path d="M33.507 132.98c10.944 12.51 21.887 8.51 32.83-1.767 12.583 18.648 28.61 28.068 44.7 5.303 28.74 9.042 46.074-2.173 60.104-21.213 24.56 5.002 40.34-5.035 50.76-24.243 18.22 26.492 10.32 48.538-2.77 69.7 5.08 12.983 13.99 15.844 20.71 18.688 31.94-9 68.22 16.152 117.18-27.274 4.85 28.603-14.59 34.945-33.33 41.92-31.24 4.492-61.62.323-91.92-4.545l-53.04 15.65-54.55-28.79c-41.07-.16-88.45-5.37-90.66-43.44z" style="opacity: 0.64; fill: rgb(177, 142, 108); fill-rule: evenodd;"/>
  <path d="M100.36 182.365c-17.834-1.16-28.085-3.103-36.14-6.85-12.42-5.78-31.756-22.75-37.857-33.226-3.83-6.58-7.716-22.63-7.874-32.52-.16-9.58.94-11.85 8.04-16.66 8.4-5.7 13.98-12.22 18.7-21.85 6.34-12.91 10.34-15.84 21.76-15.94 9.21-.08 13.77-2.63 20.17-11.29 8.33-11.25 15.98-17.27 24.24-19.05 10.87-1.46 22.2 7.34 32.86 3.68 5.65-6.56 9.77-12.28 16.58-17.8 14.23-7.22 34.94-2.09 43.24 10.74 3.68 7.55 6.45 19.31 7.69 32.63 1.27 13.623 3.25 19.46 10.76 31.683 8.29 15.34 13.19 24.47 13.38 45.2l27.266 1.234c17.084-17.79 30.59-20.693 54.016-14.5 17.956 6.11 31.77 4.79 40.596 23.447 3.973 9.55 4.7 16.87 2.44 24.65-3.827 13.15-10.288 21.76-19.83 26.41-17.81 8.68-56.137 10.01-89.415 3.09-13.864-4.13-26.66-1.84-39.41 4.344-22.216 8.915-27.115 5.005-33.608 12.614-32.52-20.727-38.498-26.92-77.634-30.06zm111.526 7.65c12.646-6.77 27.507-5.874 40.96-2.47 27.34 5.295 62.982 8.624 88.232-4.168 7.547-5.185 13.642-17.44 13.642-27.43-.642-23.745-18.434-24.335-36.5-29.876-9.607-4.28-21.3-4.66-30.912-.24-16.366 8.49-23.96 25.8-35.15 39.37-1.284-8.28 2.403-15.94 5.175-23.49l-24.236.98c-11.778 25.38-34.622 27.21-58.14 17.76-6.395 8.63-18.338 16.37-35.48 16.27 13.244 4.67 23.865 15.63 36.976 20.4 13.166 2.93 24.22-.99 35.433-7.09zm-105.664-58.768c-2.47-9.218-3.358-18.143-1.62-16.27.485.522 3.49 6.8 6.678 13.95 10.352 33.82 53.112 52 61.44 9.935.265-20.136-20.887-43.39-9.276-62.614-2.253 11.857 2.796 22.18 7.81 32.678 6.603 13.295 8.396 20.004 8.446 31.602.96 15.68 18.2 15.318 29.96 12.305 29.67-16.663 14.82-48.345 3.74-71.025-6.243-12.483-8.002-18.814-10.183-36.653-1.33-20.586-10.07-28.995-31.593-29.44-13.642-.505-15.875 21.325-27.725 21.71-9.5-.455-18.72-3.243-28.18-3.978-8.68-.034-15.36 5.256-22.05 17.45-5.23 9.518-7.22 10.636-20.47 11.484-5.51.36-10.69 1.05-11.5 1.55-10.59 15.14-13.12 24.24-29.3 36.27-6.72 18.45 5.86 57.9 31.15 53.83-1.7-16.53-2.67-31.59 6.98-44.06 1.26 5.14 1.14 10.4.84 15.64-11.7 44.69 53.49 59.74 34.83 5.65z"/>
</svg>