<?xml version="1.0" encoding="utf-8"?>
<svg width="220" height="380" viewBox="82 -80 220 380" xmlns="http://www.w3.org/2000/svg" xmlns:bx="http://www.boxy-svg.com/bx">
  <path d="M 25.137 101.931 C 21.461 183.777 84.814 174.653 134.739 183.754 C 144.762 193.668 157.812 205.808 177.089 207.086 C 198.243 203.103 213.639 200.116 240.299 191.33 C 336.725 205.51 361.442 190.36 354.739 148.01 C 348.489 133.3 297.209 105.99 266.059 138.8 L 233.229 139.3 C 232.022 118.7 228.594 105.22 210.674 72.39 C 208.224 46.19 200.024 15.69 177.664 14.54 C 162.444 13.5 155.214 24.11 146.634 33.05 C 133.194 33.36 120.154 33.47 106.954 32.21 C 92.645 37.101 84.685 62.821 59.985 63.031 C 47.145 71.107 36.735 88.891 25.135 101.921 Z" style="fill: rgb(237, 231, 204); fill-rule: evenodd;" transform="matrix(0, 1, -1, 0, 301.744508, -81.158487)" bx:origin="0.5 0.5"/>
  <path d="M -13.698 99.966 C -2.754 112.476 8.189 108.476 19.132 98.199 C 31.715 116.847 47.742 126.267 63.832 103.502 C 92.572 112.544 109.906 101.329 123.936 82.289 C 148.496 87.291 164.276 77.254 174.696 58.046 C 192.916 84.538 185.016 106.584 171.926 127.746 C 177.006 140.729 185.916 143.59 192.636 146.434 C 224.576 137.434 260.856 162.586 309.816 119.16 C 314.666 147.763 295.226 154.105 276.486 161.08 C 245.246 165.572 214.866 161.403 184.566 156.535 L 131.526 172.185 L 76.976 143.395 C 35.906 143.235 -11.474 138.025 -13.684 99.955 Z" style="opacity: 0.64; fill: rgb(177, 142, 108); fill-rule: evenodd;" transform="matrix(0, 1, -1, 0, 265.599493, -35.368505)" bx:origin="0.5 0.5"/>
  <path d="M 100.545 182.18 C 82.711 181.02 72.46 179.077 64.405 175.33 C 51.985 169.55 32.649 152.58 26.548 142.104 C 22.718 135.524 18.832 119.474 18.674 109.584 C 18.514 100.004 19.614 97.734 26.714 92.924 C 35.114 87.224 40.694 80.704 45.414 71.074 C 51.754 58.164 55.754 55.234 67.174 55.134 C 76.384 55.054 80.944 52.504 87.344 43.844 C 95.674 32.594 103.324 26.574 111.584 24.794 C 122.454 23.334 133.784 32.134 144.444 28.474 C 150.094 21.914 154.214 16.194 161.024 10.674 C 175.254 3.454 195.964 8.584 204.264 21.414 C 207.944 28.964 210.714 40.724 211.954 54.044 C 213.224 67.667 215.204 73.504 222.714 85.727 C 231.004 101.067 235.904 110.197 236.094 130.927 L 263.36 132.161 C 280.444 114.371 293.95 111.468 317.376 117.661 C 335.332 123.771 349.146 122.451 357.972 141.108 C 361.945 150.658 362.672 157.978 360.412 165.758 C 356.585 178.908 350.124 187.518 340.582 192.168 C 322.772 200.848 284.445 202.178 251.167 195.258 C 237.303 191.128 224.507 193.418 211.757 199.602 C 189.541 208.517 184.642 204.607 178.149 212.216 C 145.629 191.489 139.651 185.296 100.515 182.156 Z M 212.071 189.83 C 224.717 183.06 239.578 183.956 253.031 187.36 C 280.371 192.655 316.013 195.984 341.263 183.192 C 348.81 178.007 354.905 165.752 354.905 155.762 C 354.263 132.017 336.471 131.427 318.405 125.886 C 308.798 121.606 297.105 121.226 287.493 125.646 C 271.127 134.136 263.533 151.446 252.343 165.016 C 251.059 156.736 254.746 149.076 257.518 141.526 L 233.282 142.506 C 221.504 167.886 198.66 169.716 175.142 160.266 C 168.747 168.896 156.804 176.636 139.662 176.536 C 152.906 181.206 163.527 192.166 176.638 196.936 C 189.804 199.866 200.858 195.946 212.071 189.846 Z M 106.407 131.062 C 103.937 121.844 103.049 112.919 104.787 114.792 C 105.272 115.314 108.277 121.592 111.465 128.742 C 121.817 162.562 164.577 180.742 172.905 138.677 C 173.17 118.541 152.018 95.287 163.629 76.063 C 161.376 87.92 166.425 98.243 171.439 108.741 C 178.042 122.036 179.835 128.745 179.885 140.343 C 180.845 156.023 198.085 155.661 209.845 152.648 C 239.515 135.985 224.665 104.303 213.585 81.623 C 207.342 69.14 205.583 62.809 203.402 44.97 C 202.072 24.384 193.332 15.975 171.809 15.53 C 158.167 15.025 155.934 36.855 144.084 37.24 C 134.584 36.785 125.364 33.997 115.904 33.262 C 107.224 33.228 100.544 38.518 93.854 50.712 C 88.624 60.23 86.634 61.348 73.384 62.196 C 67.874 62.556 62.694 63.246 61.884 63.746 C 51.294 78.886 48.764 87.986 32.584 100.016 C 25.864 118.466 38.444 157.916 63.734 153.846 C 62.034 137.316 61.064 122.256 70.714 109.786 C 71.974 114.926 71.854 120.186 71.554 125.426 C 59.854 170.116 125.044 185.166 106.384 131.076 Z" transform="matrix(0, 1, -1, 0, 298.428, -82.757979)" bx:origin="0.5 0.5"/>
</svg>